<svg width="1280" height="936" viewBox="0 0 1280 936" fill="none" xmlns="http://www.w3.org/2000/svg">
<path d="M235.671 107C236.834 89.3333 239.558 53 241.152 49L389.132 85.5H680.607L783.246 132.5V167V174.5V206L798.194 248L826.096 256.5L836.061 300.5L864.959 306L859.478 326.5L880.903 338L875.422 380C864.793 381.5 842.04 384.7 836.061 385.5C828.587 386.5 781.253 391 774.776 391C769.594 391 726.114 377.333 705.021 370.5L593.912 355.5C587.767 351.833 572.886 343.2 562.522 338C552.159 332.8 558.204 314.5 562.522 306C557.54 301.667 543.091 291.5 525.154 285.5C502.733 278 478.817 285.5 445.932 279C419.625 273.8 412.716 294.833 412.55 306L375.181 315.5C357.908 313 321.868 307.6 315.889 306C308.416 304 314.893 282 315.889 273.5C316.687 266.7 306.921 246.333 301.939 237L235.671 107Z" fill="#F38725"/>
</svg>
