<svg width="1287" height="944" viewBox="0 0 1287 944" fill="none" xmlns="http://www.w3.org/2000/svg">
<path d="M117.226 230.506C127.246 221.027 37.5704 203.065 19.5352 195.082L1.5 196.579M117.226 230.506C109.21 238.09 88.1693 290.877 78.6507 316.322C115.222 365.55 188.365 465.602 188.365 471.988C188.365 478.374 179.347 531.86 174.839 557.804L215.919 414.611M117.226 230.506L174.839 237.99M215.919 414.611L326.635 442.052M215.919 414.611C222.331 391.062 232.284 301.022 236.459 258.945M326.635 442.052C319.287 490.116 306.796 587.939 315.613 594.725C324.431 601.51 418.147 602.209 463.903 601.71L471.919 455.523M326.635 442.052C321.826 442.052 349.346 365.55 363.707 327.299H464.404M326.635 442.052L471.919 455.523M471.919 455.523L517.508 464.005L550.071 486.956M471.919 455.523C481.425 451.764 490.953 449.823 500.475 448.998M550.071 486.956C550.071 501.425 550.071 531.76 550.071 537.348C550.071 544.333 576.623 562.793 599.668 567.783C618.104 571.774 655.778 569.446 672.31 567.783H691.347M550.071 486.956L573.617 452.817M691.347 567.783C691.347 582.584 691.347 613.584 691.347 619.172C691.347 624.76 700.365 644.451 704.874 653.598V685.031V699.999L701.367 595.224C719.736 591.565 757.376 585.345 760.983 589.735M691.347 567.783V472.986M760.983 589.735C764.59 594.126 769.5 634.14 771.504 653.598C787.368 659.087 819.598 670.562 821.602 672.558C824.107 675.052 842.643 675.551 843.645 664.575M760.983 589.735L787.535 524.875M843.645 664.575C844.446 655.794 843.979 567.782 843.645 524.875M843.645 664.575H924.302M843.645 524.875H787.535M843.645 524.875H911.778M787.535 524.875C781.022 524.875 796.052 486.956 794.048 481.468M691.347 472.986C724.913 473.984 792.445 477.077 794.048 481.468M691.347 472.986C691.347 437.562 676.819 369.708 686.338 375.695M691.347 472.986C707.437 464.185 646.877 454.773 573.617 452.817M794.048 481.468C800.057 477.96 808.856 469.499 817.278 460.513M911.778 524.875C915.786 534.853 921.797 622.166 924.302 664.575M911.778 524.875C921.797 519.22 943.039 507.811 947.848 507.412M924.302 664.575L1006.46 637.134C1015.31 616.678 1032.11 575.366 1028.51 573.77M1028.51 573.77C1024.9 572.173 987.927 540.508 969.891 524.875C964.548 518.887 952.658 507.013 947.848 507.412M1028.51 573.77L1069.09 528.866M947.848 507.412C959.371 504.751 984.119 499.828 990.932 501.425C997.746 503.022 1035.52 506.082 1053.55 507.412L1069.09 518.887V528.866M947.848 507.412C950.314 506.858 961.204 476.983 972.328 460.513M1069.09 528.866C1084.45 514.231 1115.88 484.262 1118.68 481.468C1121.49 478.674 1124.19 459.349 1125.19 450.035M985.923 450.035C999.95 453.528 1050.05 450.035 1062.07 450.035C1071.69 450.035 1108.16 450.035 1125.19 450.035M985.923 450.035C983.585 447.374 978.508 441.154 976.905 437.562M985.923 450.035L1069.09 368.71M985.923 450.035C981.76 448.999 977.023 453.562 972.328 460.513M1125.19 450.035C1125.19 440.057 1120.85 412.948 1118.68 400.641M1118.68 400.641L1069.09 368.71M1118.68 400.641L1140.22 359.729M1069.09 368.71L1000.95 345.26M1069.09 368.71C1069.09 357.534 1079.44 339.107 1084.62 331.29M1000.95 345.26C1001.29 350.249 998.748 361.924 985.923 368.71C969.891 377.192 964.381 387.669 965.383 394.155M1000.95 345.26C1000.95 349.251 1056.73 337.61 1084.62 331.29M1000.95 345.26C1000.95 341.269 1010.64 296.032 1015.48 273.913L1010.97 253.956M965.383 394.155C966.385 400.641 974.901 433.072 976.905 437.562M965.383 394.155C948.516 393.157 913.782 390.962 909.774 390.164M976.905 437.562L972.328 460.513M1084.62 331.29H1133.21M1010.97 253.956L1038.53 264.932C1049.21 264.932 1073.39 264.932 1084.62 264.932C1098.64 264.932 1120.69 273.913 1125.19 273.913C1128.8 273.913 1136.72 283.892 1140.22 288.881M1010.97 253.956C1040.56 209.381 1115.09 159.72 1129.7 177.121M1010.97 253.956L911.778 310.834M1140.22 288.881L1148.74 319.316L1140.22 359.729M1140.22 288.881L1139.64 292.427M1140.22 359.729L1133.21 331.29M1133.21 331.29L1139.64 292.427M1139.64 292.427C1148.26 279.623 1173.41 276.258 1174.79 266.621M1129.7 177.121C1144.23 202.733 1173.59 256.151 1174.79 264.932C1174.87 265.517 1174.87 266.079 1174.79 266.621M1129.7 177.121C1144.73 172.797 1174.79 165.446 1174.79 170.635M1174.79 170.635C1174.79 175.824 1174.79 236.788 1174.79 266.621M1174.79 170.635L1192.33 73.3437L1281.5 136.708M911.778 310.834L909.774 362.723C908.104 371.537 905.766 389.365 909.774 390.164M911.778 310.834L871.7 295.866M909.774 390.164C904.764 401.307 893.743 424.091 889.735 426.087C884.725 428.581 860.678 434.07 854.165 434.07C848.147 434.07 838.706 449.408 837.308 437.562M871.7 295.866C869.362 283.227 864.686 257.149 864.686 253.956C864.686 249.965 871.7 222.523 871.7 220.528C871.7 218.931 887.063 203.897 894.745 196.579L855.668 164.149M871.7 295.866H837.132C837.132 281.896 837.132 252.26 837.132 245.474C837.132 236.993 840.639 197.577 843.645 191.091C846.05 185.902 852.662 170.967 855.668 164.149M855.668 164.149C836.13 153.339 796.453 131.519 794.048 130.72C791.042 129.723 787.535 170.635 797.054 173.628C806.572 176.622 832.122 191.091 837.132 196.579M840.639 392.658C839.47 400.475 837.132 419.7 837.132 434.07C837.132 435.433 837.193 436.589 837.308 437.562M840.639 392.658L837.308 437.562M840.639 392.658C837.833 393.856 798.39 398.479 779.019 400.641M837.308 437.562C832.682 443.265 825.145 452.118 817.278 460.513M817.278 460.513H972.328M817.278 460.513L779.019 400.641M779.019 400.641C751.298 394.321 693.952 380.485 686.338 375.695M686.338 375.695C633.401 369.375 524.221 356.736 510.995 356.736M573.617 452.817C549.626 452.176 525.074 446.864 500.475 448.998M510.995 356.736L500.475 448.998M510.995 356.736C515.044 332.354 502.596 329.492 476.428 327.299H464.404M464.404 327.299V290.877M236.459 258.945L305.093 267.427M236.459 258.945L174.839 237.99M174.839 237.99L223.934 116.751C191.371 118.913 125.342 121.939 121.735 116.751C118.128 111.562 91.5091 95.6292 78.6507 88.3116L74.5 0.5M477 932.5L467 903.5L499 894.082L505 918.031L477 932.5Z" stroke="white" stroke-width="16"/>
</svg>
