<svg width="1315" height="974" viewBox="0 0 1315 974" fill="none" xmlns="http://www.w3.org/2000/svg">
<path d="M102.622 780.098L123.611 802.086L144.6 809.582L184.579 819.077L214.064 837.567L225.558 862.054L242.549 905.031L251.044 891.538L236.052 819.077L274.032 772.602L286.526 735.622L261.539 694.144L220.56 680.152L169.087 706.638L102.622 780.098Z" stroke="white" stroke-width="32"/>
<path d="M333.834 791.592L324.339 808.583L347.327 819.077L354.824 808.583V791.592H333.834Z" stroke="white" stroke-width="32"/>
<path d="M390.305 815.071L383.808 839.058H403.798V825.566L390.305 815.071Z" stroke="white" stroke-width="32"/>
<path d="M436.781 884.034L440.279 861.546L470.763 854.05L464.267 875.539H450.774L436.781 884.034Z" stroke="white" stroke-width="32"/>
<path d="M490.753 932.508V904.024L515.74 897.527L535.729 904.024V927.011L515.74 932.508L499.248 948L490.753 932.508Z" stroke="white" stroke-width="32"/>
<path d="M417.957 626.68C417.158 621.883 359.654 616.353 331.003 614.187C321.174 618.352 295.121 624.781 269.535 617.186C237.551 607.691 247.546 603.693 220.56 593.198C198.971 584.803 203.902 576.374 209.066 573.209C182.746 569.378 128.808 560.816 123.611 557.218C117.114 552.72 125.61 540.227 123.611 529.732C121.612 519.238 82.632 498.249 66.1406 494.251C49.6491 490.254 63.6419 478.76 58.6445 457.771C53.6471 436.782 43.1525 415.294 36.6559 399.802C31.4586 387.409 34.4904 360.99 36.6559 349.329C34.8235 344.498 29.0599 330.339 20.6642 312.349C10.1697 289.861 20.6642 283.365 20.6642 264.375C20.6642 245.385 27.1609 236.89 31.1588 207.405C35.1567 177.921 44.152 178.921 67.14 159.931C90.1281 140.941 94.126 106.46 94.126 89.9684C94.126 73.4772 97.6242 16.5078 102.622 16.0081C106.619 15.6083 196.239 30.1671 240.55 37.4965L410.461 78.4746H701.81C706.207 78.4746 774.938 109.791 808.754 125.449L870.722 149.936L934.688 196.911L965.172 238.888C970.836 254.047 983.163 286.163 987.161 293.359C991.159 300.555 1004.49 281.033 1010.65 270.372C1025.97 252.548 1056.62 215.401 1056.62 209.404C1056.62 201.908 1109.1 169.426 1113.59 169.426H1200.55C1203.38 141.774 1209.25 85.071 1210.04 79.474C1210.84 73.877 1230.7 67.1473 1240.53 64.4821C1251.02 74.6433 1272.81 95.6653 1276.01 98.4638C1279.21 101.262 1290.67 126.615 1296 138.942C1288 150.269 1270.71 174.323 1265.52 179.92C1259.02 186.916 1250.02 197.91 1240.53 209.404C1232.93 218.599 1243.69 237.223 1250.02 245.385L1194.55 293.359C1188.56 321.844 1175.46 382.811 1171.07 398.803C1165.57 418.792 1163.57 476.261 1156.57 490.254C1150.98 501.448 1125.59 526.234 1113.59 537.228C1096.1 555.885 1061.12 594.198 1061.12 598.196C1061.12 602.194 1047.8 620.184 1041.13 628.679L1061.12 701.141C1076.11 718.964 1106.1 755.511 1106.1 759.109V797.089C1098.1 807.917 1081.01 829.572 1076.61 829.572C1071.12 829.572 1055.63 803.086 1041.13 797.089C1026.64 791.092 1020.14 753.612 1012.65 735.622C1005.15 717.632 1002.15 702.14 997.655 694.144C993.158 686.148 966.172 709.636 961.174 709.636C957.177 709.636 941.185 690.646 933.689 681.151C907.369 681.484 853.331 681.951 847.734 681.151C842.136 680.352 840.404 717.132 840.237 735.622C824.745 731.791 792.762 723.529 788.764 721.13C784.766 718.731 739.457 712.468 717.301 709.636C693.481 728.959 645.839 768.604 645.839 772.602C645.839 777.599 636.344 809.582 635.344 819.077C634.545 826.673 617.354 829.238 608.858 829.572C582.039 784.429 527.5 694.144 523.902 694.144H446.442C437.281 673.655 418.757 631.478 417.957 626.68Z" stroke="white" stroke-width="32"/>
</svg>
